<?xml version="1.0" encoding="UTF-8"?>
<svg width="160" height="160" viewBox="0 0 160 160" fill="none" xmlns="http://www.w3.org/2000/svg">
    <!-- Logo Container -->
    <g id="logo">
        <!-- Logo Symbol -->
        <g id="symbol">
            <!-- Main Circle -->
            <circle cx="80" cy="80" r="75" fill="url(#circle-gradient)"/>
            <!-- BH Monogram -->
            <path d="M55 50H65C71.6 50 77 55.4 77 62V68C77 74.6 71.6 80 65 80H50V50Z" fill="white"/>
            <path d="M55 85H65C71.6 85 77 90.4 77 97V103C77 109.6 71.6 115 65 115H50V85Z" fill="white"/>
            <path d="M92 50H97V80H82V50ZM82 85H97V115H82V85Z" fill="white"/>
        </g>
    </g>

    <!-- Gradients -->
	<defs>
        <!-- Circle Gradient -->
        <linearGradient id="circle-gradient" x1="5" y1="5" x2="155" y2="155">
            <stop offset="0%" stop-color="#3B82F6"/>
            <stop offset="50%" stop-color="#2563EB"/>
            <stop offset="100%" stop-color="#1D4ED8"/>
        </linearGradient>

        <!-- Text Gradient -->
        <linearGradient id="text-gradient" x1="0" y1="-15" x2="0" y2="15">
            <stop offset="0%" stop-color="#1E293B"/>
            <stop offset="100%" stop-color="#0F172A"/>
        </linearGradient>
	</defs>
</svg>